<svg xmlns:dc="http://purl.org/dc/elements/1.1/" xmlns:cc="http://creativecommons.org/ns#" xmlns:rdf="http://www.w3.org/1999/02/22-rdf-syntax-ns#" xmlns:svg="http://www.w3.org/2000/svg" xmlns="http://www.w3.org/2000/svg" xmlns:sodipodi="http://sodipodi.sourceforge.net/DTD/sodipodi-0.dtd" xmlns:inkscape="http://www.inkscape.org/namespaces/inkscape" id="svg6049" version="1.1" inkscape:version="0.91 r13725" sodipodi:docname="Ribbon6.svg" viewBox="-0.61 0 801.22 257">
  <defs id="defs6051"/>
  <sodipodi:namedview id="base" pagecolor="#ffffff" bordercolor="#666666" borderopacity="1.0" inkscape:pageopacity="0.0" inkscape:pageshadow="2" inkscape:zoom="1.3799999" inkscape:cx="399.99994" inkscape:cy="128.06718" inkscape:document-units="px" inkscape:current-layer="layer1" showgrid="false" fit-margin-top="0" fit-margin-left="0" fit-margin-right="0" fit-margin-bottom="0" inkscape:window-width="1600" inkscape:window-height="837" inkscape:window-x="-8" inkscape:window-y="-8" inkscape:window-maximized="1"/>
  <metadata id="metadata6054">
    <rdf:RDF>
      <cc:Work rdf:about="">
        <dc:format>image/svg+xml</dc:format>
        <dc:type rdf:resource="http://purl.org/dc/dcmitype/StillImage"/>
        <dc:title/>
      </cc:Work>
    </rdf:RDF>
  </metadata>
  <g inkscape:label="Layer 1" inkscape:groupmode="layer" id="layer1" transform="translate(1398.7574,417.65434)">
    <g id="g6105">
      <path inkscape:connector-curvature="0" id="path5519" style="fill:#ffffff;fill-opacity:1;fill-rule:nonzero;stroke:#000000;stroke-width:4.90811586;stroke-linecap:butt;stroke-linejoin:miter;stroke-miterlimit:4;stroke-dasharray:none;stroke-opacity:1" d="m -982.86338,-320.98645 c 2.06162,9.41961 4.45702,34.10647 -8.91599,37.72558 24.11156,30.84667 58.57734,35.30466 119.31153,35.30466 38.30038,0 69.14705,-0.3436 91.65301,0.19635 0,7.95734 -2.49357,16.44186 -2.49357,26.31651 0,9.65915 9.65866,13.99738 23.63199,10.6178 13.97333,-3.37712 43.69347,-12.51105 59.77603,2.3954 26.98752,25.07022 76.64887,29.40845 90.11858,45.32313 -4.33921,-19.29426 -21.66659,-38.56398 -40.96085,-54.47866 18.31155,-2.90099 41.94355,-0.95718 50.14043,5.80001 -20.73199,-23.63199 -58.33731,-24.11157 -77.60752,-35.68802 -19.29426,-11.57646 -37.60533,-21.69064 -51.57866,-25.2862 0,-6.75866 -0.95717,-11.81599 -6.27958,-15.67465 -12.22341,-8.91599 -35.42443,-11.91221 -54.71869,-12.87086 2.92553,-3.14151 3.40167,-6.63889 3.40167,-12.19936 0,-9.15602 0,-19.98931 0,-30.84666 0,-10.85735 1.1977,-13.49376 -10.85735,-21.21156 -45.27551,-28.97698 -100.2573,-49.6373 -200.51461,-49.6373 -100.25734,0 -155.23954,20.66032 -200.53864,49.6373 -12.032,7.7178 -10.8338,10.35421 -10.8338,21.21156 0,10.85735 0,21.69064 0,30.84666 0,5.56047 0.4418,9.05982 3.3771,12.19936 -19.2937,0.95718 -42.4707,3.95634 -54.7182,12.87086 -5.2969,3.85816 -6.256,8.91599 -6.256,15.67465 -13.9969,3.5931 -32.3084,13.70974 -51.5787,25.2862 -19.2937,11.57645 -56.8755,12.05603 -77.6075,35.68802 8.1969,-6.75866 31.8053,-8.70001 50.1164,-5.80001 -19.2697,15.91468 -36.6226,35.1844 -40.9608,54.47866 13.4937,-15.91468 63.131,-20.25291 90.1431,-45.32313 16.0585,-14.90792 45.7781,-5.77595 59.7755,-2.3954 13.9733,3.38203 23.6084,-0.95717 23.6084,-10.6178 0,-9.87465 -2.4935,-18.35917 -2.4935,-26.31651 22.5054,-0.54977 53.3521,-0.19635 91.6765,-0.19635 60.7347,0 95.2005,-4.45701 119.288,-35.30466 -13.374,-3.61764 -10.9535,-28.30597 -8.916,-37.72558 -28.4257,-6.73461 -42.6626,-17.83199 -65.552,-17.83199 -22.8893,0 -26.7479,12.77514 -26.7479,17.35291 0,1.14861 0,2.54265 0,4.02505 -18.0721,0 -43.4299,-4.86443 -49.7095,-17.16098 35.0651,-14.71649 86.6678,-28.06643 157.92411,-28.06643 71.23222,0 122.83493,13.34994 157.89956,28.06643 -6.25553,12.29557 -31.61339,17.16098 -49.68492,17.16098 0,-1.4873 0,-2.87644 0,-4.02505 0,-4.57973 -3.85816,-17.35291 -26.74846,-17.35291 -22.91289,0 -37.12576,11.09738 -65.57555,17.83199 z"/>
      <path inkscape:connector-curvature="0" id="path5523" style="fill:none;stroke:#000000;stroke-width:4.90811586;stroke-linecap:butt;stroke-linejoin:miter;stroke-miterlimit:4;stroke-dasharray:none;stroke-opacity:1" d="m -1156.6781,-334.59998 c -7.1666,3.01879 -13.6616,6.01598 -19.4617,9.03576 -34.2262,17.83198 -36.6471,22.05044 -24.7109,28.68933"/>
      <path inkscape:connector-curvature="0" id="path5525" style="fill:none;stroke:#000000;stroke-width:4.90811586;stroke-linecap:butt;stroke-linejoin:miter;stroke-miterlimit:4;stroke-dasharray:none;stroke-opacity:1" d="m -1216.7172,-247.76477 c -17.832,0.44177 -30.4633,1.43822 -37.2701,3.66673 -11.0974,3.64218 -12.056,9.6351 -5.0573,13.01468"/>
      <path inkscape:connector-curvature="0" id="path5527" style="fill:none;stroke:#000000;stroke-width:4.90811586;stroke-linecap:butt;stroke-linejoin:miter;stroke-miterlimit:4;stroke-dasharray:none;stroke-opacity:1" d="m -1106.9687,-317.439 c 0,4.5061 0,10.11418 0,14.28453 0,9.41962 9.6351,21.21156 24.3511,21.21156 36.3831,0 43.3578,-6.73461 70.3693,-5.77596"/>
      <path inkscape:connector-curvature="0" id="path5529" style="fill:none;stroke:#000000;stroke-width:4.90811586;stroke-linecap:butt;stroke-linejoin:miter;stroke-miterlimit:4;stroke-dasharray:none;stroke-opacity:1" d="m -1012.7514,-288.67752 c -25.2862,-4.57973 -45.0595,-18.3356 -66.9902,-18.3356 -21.9302,0 -26.5084,10.37826 -22.6493,15.43511"/>
      <path inkscape:connector-curvature="0" id="path5531" style="fill:none;stroke:#000000;stroke-width:4.90811586;stroke-linecap:butt;stroke-linejoin:miter;stroke-miterlimit:4;stroke-dasharray:none;stroke-opacity:1" d="m -1267.7211,-272.76332 c 0,6.7351 0,18.07201 0,28.1862 0,7.7178 5.2969,18.31155 25.0467,14.4529 17.2326,-3.35749 28.4497,0.95718 28.4497,8.67596"/>
      <path inkscape:connector-curvature="0" id="path5533" style="fill:none;stroke:#000000;stroke-width:4.90811586;stroke-linecap:butt;stroke-linejoin:miter;stroke-miterlimit:4;stroke-dasharray:none;stroke-opacity:1" d="m -1206.7469,-301.30883 c 4.1478,4.48155 13.2542,8.22093 33.0035,15.74681 36.6472,13.99738 120.5102,23.63248 174.98939,-1.43823"/>
      <path inkscape:connector-curvature="0" id="path5535" style="fill:none;stroke:#000000;stroke-width:4.90811586;stroke-linecap:butt;stroke-linejoin:miter;stroke-miterlimit:4;stroke-dasharray:none;stroke-opacity:1" d="m -840.85445,-334.59998 c 7.16657,3.01879 13.66163,6.01598 19.48619,9.03576 34.22574,17.83198 36.62262,22.05044 24.68685,28.68933"/>
      <path inkscape:connector-curvature="0" id="path5537" style="fill:none;stroke:#000000;stroke-width:4.90811586;stroke-linecap:butt;stroke-linejoin:miter;stroke-miterlimit:4;stroke-dasharray:none;stroke-opacity:1" d="m -780.81483,-247.76477 c 17.85604,0.44177 30.46281,1.43822 37.29363,3.66673 11.07332,3.64218 12.03197,9.6351 5.05733,13.01468"/>
      <path inkscape:connector-curvature="0" id="path5539" style="fill:none;stroke:#000000;stroke-width:4.90811586;stroke-linecap:butt;stroke-linejoin:miter;stroke-miterlimit:4;stroke-dasharray:none;stroke-opacity:1" d="m -890.53936,-317.439 c 0,4.5061 0,10.11418 0,14.28453 0,9.41962 -9.63511,21.21156 -24.3516,21.21156 -36.38308,0 -43.38177,-6.73461 -70.36929,-5.77596"/>
      <path inkscape:connector-curvature="0" id="path5541" style="fill:none;stroke:#000000;stroke-width:4.90811586;stroke-linecap:butt;stroke-linejoin:miter;stroke-miterlimit:4;stroke-dasharray:none;stroke-opacity:1" d="m -984.78117,-288.67752 c 25.31025,-4.57973 45.05953,-18.3356 67.01426,-18.3356 21.93067,0 26.50843,10.37826 22.64929,15.43511"/>
      <path inkscape:connector-curvature="0" id="path5543" style="fill:none;stroke:#000000;stroke-width:4.90811586;stroke-linecap:butt;stroke-linejoin:miter;stroke-miterlimit:4;stroke-dasharray:none;stroke-opacity:1" d="m -729.78741,-272.76332 c 0,6.7351 0,18.07201 0,28.1862 0,7.7178 -5.29688,18.31155 -25.07022,14.4529 -17.20908,-3.35749 -28.44979,0.95718 -28.44979,8.67596"/>
      <path inkscape:connector-curvature="0" id="path5545" style="fill:none;stroke:#000000;stroke-width:4.90811586;stroke-linecap:butt;stroke-linejoin:miter;stroke-miterlimit:4;stroke-dasharray:none;stroke-opacity:1" d="m -790.78568,-301.30883 c -4.12323,4.48155 -13.23017,8.22093 -33.00351,15.74681 -36.62262,13.99738 -120.51021,23.63248 -174.96482,-1.43823"/>
      <path inkscape:connector-curvature="0" id="path5521" style="fill:#ffffff;fill-opacity:1;fill-rule:nonzero;stroke:#000000;stroke-width:4.90811586;stroke-linecap:butt;stroke-linejoin:miter;stroke-miterlimit:4;stroke-dasharray:none;stroke-opacity:1" d="m -998.75401,-282.18245 c 16.6333,0 17.35241,-13.25422 17.35241,-25.07021 0,-11.79244 -0.71665,-25.04666 -17.35241,-25.04666 -16.63379,0 -17.35289,13.25422 -17.35289,25.04666 0,11.81599 0.7166,25.07021 17.35289,25.07021 z"/>
    </g>
  </g>
</svg>